<mxfile host="Electron" agent="Mozilla/5.0 (Macintosh; Intel Mac OS X 10_15_7) AppleWebKit/537.36 (KHTML, like Gecko) draw.io/25.0.2 Chrome/128.0.6613.186 Electron/32.2.5 Safari/537.36" version="25.0.2">
  <diagram name="PÃ¡gina-1" id="tGhNAGnevT7FkV5eO6Xm">
    <mxGraphModel dx="1026" dy="692" grid="1" gridSize="10" guides="1" tooltips="1" connect="1" arrows="1" fold="1" page="1" pageScale="1" pageWidth="827" pageHeight="1169" math="0" shadow="0">
      <root>
        <mxCell id="0" />
        <mxCell id="1" parent="0" />
        <mxCell id="3eW1Ald7KwHnX19pX1mG-2" value="JwtUtil.java" style="rounded=0;whiteSpace=wrap;html=1;fillColor=#0050ef;fontColor=#ffffff;strokeColor=#001DBC;" vertex="1" parent="1">
          <mxGeometry x="340" y="130" width="120" height="60" as="geometry" />
        </mxCell>
        <mxCell id="3eW1Ald7KwHnX19pX1mG-3" value="Generar Tokens" style="rounded=0;whiteSpace=wrap;html=1;fillColor=#1ba1e2;fontColor=#ffffff;strokeColor=#006EAF;" vertex="1" parent="1">
          <mxGeometry x="130" y="240" width="120" height="60" as="geometry" />
        </mxCell>
        <mxCell id="3eW1Ald7KwHnX19pX1mG-4" style="edgeStyle=orthogonalEdgeStyle;rounded=0;orthogonalLoop=1;jettySize=auto;html=1;entryX=0.158;entryY=1;entryDx=0;entryDy=0;entryPerimeter=0;" edge="1" parent="1" source="3eW1Ald7KwHnX19pX1mG-3" target="3eW1Ald7KwHnX19pX1mG-2">
          <mxGeometry relative="1" as="geometry" />
        </mxCell>
        <mxCell id="3eW1Ald7KwHnX19pX1mG-6" style="edgeStyle=orthogonalEdgeStyle;rounded=0;orthogonalLoop=1;jettySize=auto;html=1;entryX=0.558;entryY=1.067;entryDx=0;entryDy=0;entryPerimeter=0;" edge="1" parent="1" source="3eW1Ald7KwHnX19pX1mG-5" target="3eW1Ald7KwHnX19pX1mG-2">
          <mxGeometry relative="1" as="geometry" />
        </mxCell>
        <mxCell id="3eW1Ald7KwHnX19pX1mG-5" value="Validar Tokens" style="rounded=0;whiteSpace=wrap;html=1;fillColor=#1ba1e2;fontColor=#ffffff;strokeColor=#006EAF;" vertex="1" parent="1">
          <mxGeometry x="350" y="330" width="120" height="60" as="geometry" />
        </mxCell>
        <mxCell id="3eW1Ald7KwHnX19pX1mG-7" value="Obtener info del token" style="rounded=0;whiteSpace=wrap;html=1;fillColor=#1ba1e2;fontColor=#ffffff;strokeColor=#006EAF;" vertex="1" parent="1">
          <mxGeometry x="560" y="240" width="120" height="60" as="geometry" />
        </mxCell>
        <mxCell id="3eW1Ald7KwHnX19pX1mG-8" style="edgeStyle=orthogonalEdgeStyle;rounded=0;orthogonalLoop=1;jettySize=auto;html=1;entryX=0.833;entryY=1;entryDx=0;entryDy=0;entryPerimeter=0;" edge="1" parent="1" source="3eW1Ald7KwHnX19pX1mG-7" target="3eW1Ald7KwHnX19pX1mG-2">
          <mxGeometry relative="1" as="geometry" />
        </mxCell>
      </root>
    </mxGraphModel>
  </diagram>
</mxfile>
